<svg xmlns="http://www.w3.org/2000/svg" viewBox="0 0 900 520" font-family="Helvetica, Arial, sans-serif">
  <defs>
    <marker id="a" viewBox="0 0 10 10" refX="9" refY="5" markerWidth="8" markerHeight="8" orient="auto-start-reverse"><path d="M0,0 L10,5 L0,10 z" fill="#3a76b8"/></marker>
  </defs>
  <rect width="900" height="520" fill="#ffffff"/>
  <text x="450" y="40" text-anchor="middle" font-size="24" font-weight="bold" fill="#1e5f96">You draw it. The garage board runs the yard.</text>

  <!-- kid + drawing -->
  <circle cx="100" cy="130" r="22" fill="#fce5cd" stroke="#b8860b" stroke-width="2"/>
  <circle cx="92" cy="126" r="3" fill="#232323"/><circle cx="108" cy="126" r="3" fill="#232323"/>
  <path d="M92,138 Q100,144 108,138" stroke="#232323" stroke-width="2" fill="none"/>
  <rect x="80" y="156" width="40" height="52" rx="10" fill="#cfe2f3" stroke="#6c8ebf" stroke-width="2"/>

  <rect x="150" y="90" width="200" height="170" rx="6" fill="#ffffff" stroke="#8a8a82" stroke-width="2" transform="rotate(-2 250 175)"/>
  <text x="250" y="118" text-anchor="middle" font-size="14" font-weight="bold" fill="#232323" transform="rotate(-2 250 175)">MY FORT</text>
  <path d="M200,210 L200,160 L250,132 L300,160 L300,210 Z" fill="none" stroke="#b85450" stroke-width="2.5" transform="rotate(-2 250 175)"/>
  <rect x="238" y="140" width="24" height="16" fill="none" stroke="#b85450" stroke-width="2" transform="rotate(-2 250 175)"/>
  <line x1="208" y1="210" x2="208" y2="182" stroke="#b8860b" stroke-width="2.5" transform="rotate(-2 250 175)"/>
  <line x1="216" y1="210" x2="216" y2="182" stroke="#b8860b" stroke-width="2.5" transform="rotate(-2 250 175)"/>
  <line x1="204" y1="190" x2="220" y2="190" stroke="#b8860b" stroke-width="2" transform="rotate(-2 250 175)"/>
  <line x1="204" y1="200" x2="220" y2="200" stroke="#b8860b" stroke-width="2" transform="rotate(-2 250 175)"/>
  <text x="250" y="228" text-anchor="middle" font-size="10" fill="#333" transform="rotate(-2 250 175)">lookout · rope ladder · secret door</text>
  <text x="250" y="244" text-anchor="middle" font-size="10" font-weight="bold" fill="#b85450" transform="rotate(-2 250 175)">DON'T TOUCH THE SWING!</text>
  <text x="250" y="286" text-anchor="middle" font-size="13" fill="#555">your drawing</text>

  <path d="M360,175 L420,175" stroke="#3a76b8" stroke-width="2.5" marker-end="url(#a)"/>
  <text x="390" y="164" text-anchor="middle" font-size="12" fill="#3a76b8">pin it up</text>

  <!-- garage board -->
  <rect x="430" y="80" width="440" height="240" rx="8" fill="#f6e0b5" stroke="#b8860b" stroke-width="2.5"/>
  <text x="650" y="106" text-anchor="middle" font-size="14" font-weight="bold" fill="#6a4a10">THE GARAGE BOARD</text>
  <rect x="446" y="120" width="98" height="180" rx="5" fill="#ffffff" stroke="#8a8a82" stroke-width="1.5"/>
  <text x="495" y="140" text-anchor="middle" font-size="11" font-weight="bold" fill="#333">waiting</text>
  <rect x="456" y="150" width="78" height="34" rx="3" fill="#fffde7" stroke="#c8b900"/>
  <rect x="456" y="190" width="78" height="34" rx="3" fill="#fffde7" stroke="#c8b900"/>
  <rect x="556" y="120" width="98" height="180" rx="5" fill="#ffffff" stroke="#8a8a82" stroke-width="1.5"/>
  <text x="605" y="140" text-anchor="middle" font-size="11" font-weight="bold" fill="#333">building</text>
  <rect x="566" y="150" width="78" height="34" rx="3" fill="#dae8fc" stroke="#6c8ebf"/>
  <rect x="666" y="120" width="98" height="180" rx="5" fill="#ffffff" stroke="#8a8a82" stroke-width="1.5"/>
  <text x="715" y="140" text-anchor="middle" font-size="11" font-weight="bold" fill="#333">done</text>
  <rect x="676" y="150" width="78" height="34" rx="3" fill="#d5e8d4" stroke="#82b366"/>
  <rect x="676" y="190" width="78" height="34" rx="3" fill="#d5e8d4" stroke="#82b366"/>
  <rect x="776" y="120" width="80" height="180" rx="5" fill="#ffffff" stroke="#8a8a82" stroke-width="1.5"/>
  <text x="816" y="134" text-anchor="middle" font-size="10" font-weight="bold" fill="#333">didn't</text>
  <text x="816" y="146" text-anchor="middle" font-size="10" font-weight="bold" fill="#333">work</text>
  <rect x="784" y="154" width="64" height="40" rx="3" fill="#f8cecc" stroke="#b85450"/>
  <text x="816" y="172" text-anchor="middle" font-size="8" fill="#7a3230">+ notes on</text>
  <text x="816" y="184" text-anchor="middle" font-size="8" fill="#7a3230">what went wrong</text>
  <text x="650" y="342" text-anchor="middle" font-size="12" fill="#6a4a10">the flops stay pinned up — no hiding them</text>

  <!-- robot takes it -->
  <line x1="470" y1="392" x2="470" y2="376" stroke="#d6b656" stroke-width="3"/>
  <circle cx="470" cy="370" r="6" fill="#d79b00"/>
  <rect x="436" y="392" width="68" height="54" rx="12" fill="#fff2cc" stroke="#d6b656" stroke-width="2.5"/>
  <circle cx="458" cy="414" r="6" fill="#232323"/><circle cx="482" cy="414" r="6" fill="#232323"/>
  <path d="M456,432 Q470,440 484,432" stroke="#232323" stroke-width="2.5" fill="none"/>
  <path d="M520,415 L580,415" stroke="#3a76b8" stroke-width="2.5" marker-end="url(#a)"/>
  <text x="620" y="408" font-size="13" fill="#333">the robot friends take it</text>
  <text x="620" y="426" font-size="13" fill="#333">from there</text>

  <rect x="120" y="460" width="660" height="44" rx="8" fill="#fffde7" stroke="#c8b900" stroke-width="1.5"/>
  <text x="450" y="487" text-anchor="middle" font-size="15" fill="#4a4a20">Your drawing is the whole ask — what you want, and what they must not touch.</text>
</svg>
